# xmcd CD database file
#
# Track frame offsets:
#	150
#	20312
#	41025
#	61776
#	86083
#	107709
#	128810
#	150255
#	171533
#	194060
#	214904
#	236465
#	258928
#	280668
#	301905
#
# Disc length: 4339 seconds
#
# Revision: 0
# Processed by: cddbd v1.5PL3 Copyright (c) Steve Scherf et al.
# Submitted via: CDex 1.51
#
DISCID=ca10f10f
DTITLE=Luis Enrique - 15 Exitos
DYEAR=2002
DGENRE=Salsa
TTITLE0=Tu No Le Amas Le Temes
TTITLE1=Amiga
TTITLE2=Asi Son Las Cosas
TTITLE3=Compréndelo
TTITLE4=Date Un Chance
TTITLE5=Lo Que Paso Entre Tu Y Yo.... Paso
TTITLE6=Mi Mundo
TTITLE7=Asi Es La Vida
TTITLE8=Por Ti
TTITLE9=Corazon Loco
TTITLE10=Aventura
TTITLE11=Llegó El Amor
TTITLE12=Quien Eres Tu
TTITLE13=Un Hombre Afortunado
TTITLE14=Muerto de Amor
EXTD=YEAR: 2002
EXTT0=
EXTT1=
EXTT2=
EXTT3=
EXTT4=
EXTT5=
EXTT6=
EXTT7=
EXTT8=
EXTT9=
EXTT10=
EXTT11=
EXTT12=
EXTT13=
EXTT14=
PLAYORDER=
